<mxfile host="65bd71144e" modified="2021-02-08T01:12:12.152Z" agent="5.0 (X11; Linux x86_64) AppleWebKit/537.36 (KHTML, like Gecko) Code/1.52.1 Chrome/83.0.4103.122 Electron/9.3.5 Safari/537.36" etag="gzeAsDVzuwGJLm4Nr7uX" version="13.10.0" type="embed">
    <diagram id="uzU6MHjWu8rI1b5QuUML" name="Page-1">
        <mxGraphModel dx="3353" dy="2033" grid="0" gridSize="10" guides="1" tooltips="1" connect="1" arrows="1" fold="1" page="0" pageScale="1" pageWidth="6000" pageHeight="3000" background="#ffffff" math="0" shadow="0">
            <root>
                <mxCell id="0"/>
                <mxCell id="1" parent="0"/>
                <mxCell id="oxPGqsW1CZE7ANa_mBI_-80" value="1" style="edgeStyle=orthogonalEdgeStyle;rounded=0;orthogonalLoop=1;jettySize=auto;html=1;entryX=0.5;entryY=0;entryDx=0;entryDy=0;fontSize=40;strokeWidth=10;noLabel=1;fontColor=none;" parent="1" source="oxPGqsW1CZE7ANa_mBI_-44" target="oxPGqsW1CZE7ANa_mBI_-61" edge="1">
                    <mxGeometry relative="1" as="geometry">
                        <mxPoint x="2716.715728752537" y="600.0057287525374" as="sourcePoint"/>
                    </mxGeometry>
                </mxCell>
                <mxCell id="oxPGqsW1CZE7ANa_mBI_-81" value="&lt;font style=&quot;font-size: 45px&quot;&gt;User enters his tasks for the day&lt;/font&gt;" style="edgeLabel;html=1;align=center;verticalAlign=middle;resizable=0;points=[];fontSize=35;fontColor=#000000;labelBackgroundColor=#ffffff;" parent="oxPGqsW1CZE7ANa_mBI_-80" vertex="1" connectable="0">
                    <mxGeometry x="0.1104" y="1" relative="1" as="geometry">
                        <mxPoint as="offset"/>
                    </mxGeometry>
                </mxCell>
                <mxCell id="oxPGqsW1CZE7ANa_mBI_-86" style="edgeStyle=orthogonalEdgeStyle;rounded=0;orthogonalLoop=1;jettySize=auto;html=1;strokeWidth=10;fontColor=#000000;" parent="1" source="oxPGqsW1CZE7ANa_mBI_-44" target="oxPGqsW1CZE7ANa_mBI_-82" edge="1">
                    <mxGeometry relative="1" as="geometry">
                        <mxPoint x="2705" y="628.29" as="sourcePoint"/>
                    </mxGeometry>
                </mxCell>
                <mxCell id="oxPGqsW1CZE7ANa_mBI_-87" style="edgeStyle=orthogonalEdgeStyle;rounded=0;orthogonalLoop=1;jettySize=auto;html=1;exitX=1;exitY=0.5;exitDx=0;exitDy=0;entryX=0.5;entryY=0;entryDx=0;entryDy=0;strokeWidth=10;fontColor=#000000;" parent="1" source="oxPGqsW1CZE7ANa_mBI_-44" target="oxPGqsW1CZE7ANa_mBI_-73" edge="1">
                    <mxGeometry relative="1" as="geometry">
                        <mxPoint x="2785" y="628.29" as="sourcePoint"/>
                    </mxGeometry>
                </mxCell>
                <mxCell id="oxPGqsW1CZE7ANa_mBI_-44" value="User&amp;nbsp;" style="ellipse;whiteSpace=wrap;html=1;aspect=fixed;fontSize=44;fillColor=#d5e8d4;strokeColor=#82b366;fontColor=#000000;" parent="1" vertex="1">
                    <mxGeometry x="2592" y="60" width="170" height="170" as="geometry"/>
                </mxCell>
                <mxCell id="oxPGqsW1CZE7ANa_mBI_-48" value="To-Do List" style="swimlane;fontStyle=0;childLayout=stackLayout;horizontal=1;startSize=70;fillColor=#f8cecc;horizontalStack=0;resizeParent=1;resizeParentMax=0;resizeLast=0;collapsible=1;marginBottom=0;fontSize=44;strokeColor=#b85450;fontColor=#000000;" parent="1" vertex="1">
                    <mxGeometry x="1885" y="650" width="490" height="240" as="geometry"/>
                </mxCell>
                <mxCell id="oxPGqsW1CZE7ANa_mBI_-49" value="- Array of ToDo Objects " style="text;strokeColor=#b85450;fillColor=#f8cecc;align=left;verticalAlign=top;spacingLeft=4;spacingRight=4;overflow=hidden;rotatable=0;points=[[0,0.5],[1,0.5]];portConstraint=eastwest;fontSize=44;fontColor=#000000;" parent="oxPGqsW1CZE7ANa_mBI_-48" vertex="1">
                    <mxGeometry y="70" width="490" height="70" as="geometry"/>
                </mxCell>
                <mxCell id="oxPGqsW1CZE7ANa_mBI_-50" value="- Current Task" style="text;strokeColor=#b85450;fillColor=#f8cecc;align=left;verticalAlign=top;spacingLeft=4;spacingRight=4;overflow=hidden;rotatable=0;points=[[0,0.5],[1,0.5]];portConstraint=eastwest;fontSize=44;fontColor=#000000;" parent="oxPGqsW1CZE7ANa_mBI_-48" vertex="1">
                    <mxGeometry y="140" width="490" height="100" as="geometry"/>
                </mxCell>
                <mxCell id="29" style="edgeStyle=orthogonalEdgeStyle;orthogonalLoop=1;jettySize=auto;html=1;exitX=0.5;exitY=1;exitDx=0;exitDy=0;entryX=0.5;entryY=0;entryDx=0;entryDy=0;labelBackgroundColor=#FFFFFF;strokeColor=#000000;strokeWidth=10;fillColor=#dae8fc;fontSize=48;fontColor=#000000;" edge="1" parent="1" source="oxPGqsW1CZE7ANa_mBI_-53" target="oxPGqsW1CZE7ANa_mBI_-64">
                    <mxGeometry relative="1" as="geometry"/>
                </mxCell>
                <mxCell id="40" style="edgeStyle=orthogonalEdgeStyle;orthogonalLoop=1;jettySize=auto;html=1;exitX=0.75;exitY=0;exitDx=0;exitDy=0;entryX=0.5;entryY=1;entryDx=0;entryDy=0;strokeColor=#6c8ebf;strokeWidth=10;fillColor=#dae8fc;fontSize=44;fontColor=#000000;" edge="1" parent="1" source="oxPGqsW1CZE7ANa_mBI_-53" target="oxPGqsW1CZE7ANa_mBI_-138">
                    <mxGeometry relative="1" as="geometry"/>
                </mxCell>
                <mxCell id="oxPGqsW1CZE7ANa_mBI_-53" value="Timer" style="swimlane;fontStyle=0;childLayout=stackLayout;horizontal=1;startSize=80;fillColor=#f8cecc;horizontalStack=0;resizeParent=1;resizeParentMax=0;resizeLast=0;collapsible=1;marginBottom=0;fontSize=44;strokeColor=#b85450;fontColor=#000000;" parent="1" vertex="1">
                    <mxGeometry x="2340" y="1524" width="680" height="320" as="geometry"/>
                </mxCell>
                <mxCell id="oxPGqsW1CZE7ANa_mBI_-55" value="- Type of countdown" style="text;strokeColor=#b85450;fillColor=#f8cecc;align=left;verticalAlign=top;spacingLeft=4;spacingRight=4;overflow=hidden;rotatable=0;points=[[0,0.5],[1,0.5]];portConstraint=eastwest;fontSize=44;fontColor=#000000;" parent="oxPGqsW1CZE7ANa_mBI_-53" vertex="1">
                    <mxGeometry y="80" width="680" height="110" as="geometry"/>
                </mxCell>
                <mxCell id="oxPGqsW1CZE7ANa_mBI_-54" value="- Time Remaining " style="text;strokeColor=#b85450;fillColor=#f8cecc;align=left;verticalAlign=top;spacingLeft=4;spacingRight=4;overflow=hidden;rotatable=0;points=[[0,0.5],[1,0.5]];portConstraint=eastwest;fontSize=44;fontColor=#000000;" parent="oxPGqsW1CZE7ANa_mBI_-53" vertex="1">
                    <mxGeometry y="190" width="680" height="130" as="geometry"/>
                </mxCell>
                <mxCell id="oxPGqsW1CZE7ANa_mBI_-57" value="Up Next Plan" style="swimlane;fontStyle=0;childLayout=stackLayout;horizontal=1;startSize=50;fillColor=#f8cecc;horizontalStack=0;resizeParent=1;resizeParentMax=0;resizeLast=0;collapsible=1;marginBottom=0;fontSize=44;strokeColor=#b85450;fontColor=#000000;" parent="1" vertex="1">
                    <mxGeometry x="1129" y="1831" width="720" height="430" as="geometry"/>
                </mxCell>
                <mxCell id="oxPGqsW1CZE7ANa_mBI_-59" value="- Stack to keep track of&#10;what has been &#10;accomplished" style="text;strokeColor=#b85450;fillColor=#f8cecc;align=left;verticalAlign=top;spacingLeft=4;spacingRight=4;overflow=hidden;rotatable=0;points=[[0,0.5],[1,0.5]];portConstraint=eastwest;fontSize=44;fontColor=#000000;" parent="oxPGqsW1CZE7ANa_mBI_-57" vertex="1">
                    <mxGeometry y="50" width="720" height="200" as="geometry"/>
                </mxCell>
                <mxCell id="oxPGqsW1CZE7ANa_mBI_-58" value="- Queue based &#10;implementation of what &#10;task is up next" style="text;strokeColor=#b85450;fillColor=#f8cecc;align=left;verticalAlign=top;spacingLeft=4;spacingRight=4;overflow=hidden;rotatable=0;points=[[0,0.5],[1,0.5]];portConstraint=eastwest;fontSize=44;fontColor=#000000;" parent="oxPGqsW1CZE7ANa_mBI_-57" vertex="1">
                    <mxGeometry y="250" width="720" height="180" as="geometry"/>
                </mxCell>
                <mxCell id="oxPGqsW1CZE7ANa_mBI_-78" style="edgeStyle=orthogonalEdgeStyle;rounded=0;orthogonalLoop=1;jettySize=auto;html=1;exitX=0.5;exitY=1;exitDx=0;exitDy=0;entryX=0.5;entryY=0;entryDx=0;entryDy=0;fontColor=#000000;" parent="1" source="oxPGqsW1CZE7ANa_mBI_-61" target="oxPGqsW1CZE7ANa_mBI_-69" edge="1">
                    <mxGeometry relative="1" as="geometry"/>
                </mxCell>
                <mxCell id="oxPGqsW1CZE7ANa_mBI_-116" value="" style="edgeStyle=orthogonalEdgeStyle;rounded=1;orthogonalLoop=1;jettySize=auto;html=1;strokeWidth=5;fontSize=40;fontColor=#000000;" parent="1" source="oxPGqsW1CZE7ANa_mBI_-61" target="oxPGqsW1CZE7ANa_mBI_-69" edge="1">
                    <mxGeometry relative="1" as="geometry"/>
                </mxCell>
                <mxCell id="oxPGqsW1CZE7ANa_mBI_-61" value="&lt;font style=&quot;font-size: 44px&quot;&gt;Task Added&amp;nbsp;&lt;/font&gt;" style="ellipse;whiteSpace=wrap;html=1;fontSize=24;fillColor=#e1d5e7;strokeColor=#9673a6;fontColor=#000000;" parent="1" vertex="1">
                    <mxGeometry x="1161" y="304" width="290" height="160.85" as="geometry"/>
                </mxCell>
                <mxCell id="oxPGqsW1CZE7ANa_mBI_-79" style="edgeStyle=orthogonalEdgeStyle;rounded=0;orthogonalLoop=1;jettySize=auto;html=1;exitX=0.5;exitY=1;exitDx=0;exitDy=0;strokeWidth=10;fontColor=#000000;" parent="1" source="oxPGqsW1CZE7ANa_mBI_-62" target="oxPGqsW1CZE7ANa_mBI_-68" edge="1">
                    <mxGeometry relative="1" as="geometry">
                        <Array as="points">
                            <mxPoint x="2227" y="1412"/>
                            <mxPoint x="2227" y="1412"/>
                        </Array>
                    </mxGeometry>
                </mxCell>
                <mxCell id="oxPGqsW1CZE7ANa_mBI_-62" value="&lt;font style=&quot;font-size: 44px&quot;&gt;Task Completed&lt;/font&gt;" style="ellipse;whiteSpace=wrap;html=1;fillColor=#e1d5e7;strokeColor=#9673a6;fontColor=#000000;" parent="1" vertex="1">
                    <mxGeometry x="2072" y="1123" width="310" height="150.85" as="geometry"/>
                </mxCell>
                <mxCell id="9" value="Update tasks" style="edgeStyle=orthogonalEdgeStyle;orthogonalLoop=1;jettySize=auto;html=1;exitX=0;exitY=0.5;exitDx=0;exitDy=0;strokeColor=#6c8ebf;strokeWidth=10;fillColor=#dae8fc;fontSize=48;fontColor=#000000;labelBackgroundColor=#FFFFFF;entryX=0;entryY=0.5;entryDx=0;entryDy=0;entryPerimeter=0;" edge="1" parent="1" source="oxPGqsW1CZE7ANa_mBI_-69" target="6">
                    <mxGeometry x="0.002" y="53" relative="1" as="geometry">
                        <mxPoint x="1734" y="3519" as="targetPoint"/>
                        <Array as="points">
                            <mxPoint x="1" y="770"/>
                            <mxPoint x="1" y="3506"/>
                        </Array>
                        <mxPoint y="-1" as="offset"/>
                    </mxGeometry>
                </mxCell>
                <mxCell id="oxPGqsW1CZE7ANa_mBI_-63" value="&lt;p style=&quot;margin: 4px 0px 0px ; text-align: center ; text-decoration: underline ; font-size: 44px&quot;&gt;&lt;b&gt;&lt;font style=&quot;font-size: 44px&quot;&gt;Statistics&amp;nbsp;&lt;/font&gt;&lt;/b&gt;&lt;/p&gt;&lt;hr style=&quot;font-size: 44px&quot;&gt;&lt;p style=&quot;margin: 0px 0px 0px 8px ; font-size: 44px&quot;&gt;&lt;font style=&quot;font-size: 44px&quot;&gt;Total_Pomo_Time: Num&lt;br&gt;&lt;br&gt;&lt;/font&gt;&lt;/p&gt;&lt;p style=&quot;margin: 0px 0px 0px 8px ; font-size: 44px&quot;&gt;&lt;font style=&quot;font-size: 44px&quot;&gt;# of Broken Sessions: Num&lt;br&gt;&lt;br&gt;&lt;/font&gt;&lt;/p&gt;&lt;p style=&quot;margin: 0px 0px 0px 8px ; font-size: 44px&quot;&gt;&lt;font style=&quot;font-size: 44px&quot;&gt;Expected Pomo Time: Num&lt;/font&gt;&lt;/p&gt;&lt;p style=&quot;margin: 0px 0px 0px 8px ; font-size: 44px&quot;&gt;&lt;font style=&quot;font-size: 44px&quot;&gt;&lt;br&gt;&lt;/font&gt;&lt;/p&gt;&lt;p style=&quot;margin: 0px 0px 0px 8px ; font-size: 44px&quot;&gt;&lt;font style=&quot;font-size: 44px&quot;&gt;Reasons for Broken Ses:&lt;/font&gt;&lt;/p&gt;&lt;p style=&quot;margin: 0px 0px 0px 8px ; font-size: 44px&quot;&gt;&lt;font style=&quot;font-size: 44px&quot;&gt;&amp;nbsp; &amp;nbsp;String[]&lt;/font&gt;&lt;/p&gt;&lt;p style=&quot;margin: 0px 0px 0px 8px ; font-size: 44px&quot;&gt;&lt;font style=&quot;font-size: 44px&quot;&gt;&lt;br&gt;&lt;/font&gt;&lt;/p&gt;&lt;p style=&quot;margin: 0px 0px 0px 8px ; font-size: 44px&quot;&gt;&lt;font style=&quot;font-size: 44px&quot;&gt;Total ToDos Done: Num&lt;/font&gt;&lt;/p&gt;" style="verticalAlign=top;align=left;overflow=fill;fontSize=12;fontFamily=Helvetica;html=1;fillColor=#f8cecc;strokeColor=#b85450;fontColor=#000000;" parent="1" vertex="1">
                    <mxGeometry x="268" y="1725" width="720" height="730" as="geometry"/>
                </mxCell>
                <mxCell id="oxPGqsW1CZE7ANa_mBI_-91" style="edgeStyle=orthogonalEdgeStyle;rounded=0;orthogonalLoop=1;jettySize=auto;html=1;exitX=1;exitY=0.5;exitDx=0;exitDy=0;strokeWidth=10;fontColor=#000000;strokeColor=#000000;" parent="1" source="oxPGqsW1CZE7ANa_mBI_-64" target="oxPGqsW1CZE7ANa_mBI_-70" edge="1">
                    <mxGeometry relative="1" as="geometry">
                        <Array as="points">
                            <mxPoint x="3013" y="2070"/>
                            <mxPoint x="3013" y="2070"/>
                        </Array>
                    </mxGeometry>
                </mxCell>
                <mxCell id="oxPGqsW1CZE7ANa_mBI_-65" style="edgeStyle=orthogonalEdgeStyle;rounded=0;orthogonalLoop=1;jettySize=auto;html=1;exitX=0;exitY=0.5;exitDx=0;exitDy=0;fontColor=#000000;entryX=1;entryY=0.5;entryDx=0;entryDy=0;" parent="1" source="oxPGqsW1CZE7ANa_mBI_-49" target="oxPGqsW1CZE7ANa_mBI_-61" edge="1">
                    <mxGeometry relative="1" as="geometry">
                        <mxPoint x="1500" y="455" as="targetPoint"/>
                        <Array as="points">
                            <mxPoint x="1885" y="384"/>
                        </Array>
                    </mxGeometry>
                </mxCell>
                <mxCell id="oxPGqsW1CZE7ANa_mBI_-129" style="edgeStyle=orthogonalEdgeStyle;rounded=1;orthogonalLoop=1;jettySize=auto;html=1;strokeWidth=10;fontSize=44;fillColor=#dae8fc;strokeColor=#6c8ebf;fontColor=#000000;" parent="1" source="oxPGqsW1CZE7ANa_mBI_-68" edge="1">
                    <mxGeometry relative="1" as="geometry">
                        <Array as="points">
                            <mxPoint x="1974" y="1427"/>
                            <mxPoint x="1974" y="1427"/>
                        </Array>
                        <mxPoint x="1974" y="895" as="targetPoint"/>
                    </mxGeometry>
                </mxCell>
                <mxCell id="oxPGqsW1CZE7ANa_mBI_-131" style="edgeStyle=orthogonalEdgeStyle;rounded=1;orthogonalLoop=1;jettySize=auto;html=1;exitX=0;exitY=0.25;exitDx=0;exitDy=0;strokeWidth=10;fontSize=44;fillColor=#dae8fc;strokeColor=#6c8ebf;fontColor=#000000;" parent="1" source="oxPGqsW1CZE7ANa_mBI_-68" target="oxPGqsW1CZE7ANa_mBI_-63" edge="1">
                    <mxGeometry relative="1" as="geometry">
                        <Array as="points">
                            <mxPoint x="1915" y="1610"/>
                            <mxPoint x="645" y="1610"/>
                        </Array>
                    </mxGeometry>
                </mxCell>
                <mxCell id="14" style="edgeStyle=orthogonalEdgeStyle;orthogonalLoop=1;jettySize=auto;html=1;exitX=0.5;exitY=1;exitDx=0;exitDy=0;labelBackgroundColor=#FFFFFF;strokeColor=#6c8ebf;strokeWidth=10;fillColor=#dae8fc;fontSize=48;fontColor=#000000;" edge="1" parent="1" target="6">
                    <mxGeometry relative="1" as="geometry">
                        <mxPoint x="4557.4" y="2830" as="sourcePoint"/>
                        <mxPoint x="2944" y="3125" as="targetPoint"/>
                        <Array as="points">
                            <mxPoint x="4558" y="3125"/>
                            <mxPoint x="2076" y="3125"/>
                        </Array>
                    </mxGeometry>
                </mxCell>
                <mxCell id="oxPGqsW1CZE7ANa_mBI_-68" value="&lt;font style=&quot;font-size: 44px&quot;&gt;completeTask()&lt;br&gt;&lt;/font&gt;&lt;div style=&quot;font-size: 44px&quot;&gt;&lt;font style=&quot;font-size: 44px&quot;&gt;- remove all instances of task from&amp;nbsp; &amp;nbsp; &amp;nbsp; &amp;nbsp; &amp;nbsp; upNext queue&lt;/font&gt;&lt;/div&gt;&lt;div style=&quot;font-size: 44px&quot;&gt;&lt;font style=&quot;font-size: 44px&quot;&gt;- remove task from ToDoList array&amp;nbsp;&lt;/font&gt;&lt;/div&gt;&lt;div style=&quot;font-size: 44px&quot;&gt;&lt;font style=&quot;font-size: 44px&quot;&gt;- update necessary statistics&lt;/font&gt;&lt;/div&gt;" style="rounded=1;whiteSpace=wrap;html=1;fontSize=24;align=center;fillColor=#fff2cc;strokeColor=#d6b656;fontColor=#000000;" parent="1" vertex="1">
                    <mxGeometry x="1444" y="1352" width="770" height="400" as="geometry"/>
                </mxCell>
                <mxCell id="oxPGqsW1CZE7ANa_mBI_-125" style="edgeStyle=orthogonalEdgeStyle;rounded=1;orthogonalLoop=1;jettySize=auto;html=1;exitX=0;exitY=0.5;exitDx=0;exitDy=0;entryX=0.5;entryY=0;entryDx=0;entryDy=0;strokeWidth=10;fontSize=44;fillColor=#dae8fc;strokeColor=#6c8ebf;fontColor=#000000;" parent="1" source="oxPGqsW1CZE7ANa_mBI_-69" target="oxPGqsW1CZE7ANa_mBI_-63" edge="1">
                    <mxGeometry relative="1" as="geometry"/>
                </mxCell>
                <mxCell id="oxPGqsW1CZE7ANa_mBI_-126" style="edgeStyle=orthogonalEdgeStyle;rounded=1;orthogonalLoop=1;jettySize=auto;html=1;exitX=0.5;exitY=1;exitDx=0;exitDy=0;entryX=0.25;entryY=0;entryDx=0;entryDy=0;strokeWidth=10;fontSize=44;fillColor=#dae8fc;strokeColor=#6c8ebf;fontColor=#000000;" parent="1" source="oxPGqsW1CZE7ANa_mBI_-69" target="oxPGqsW1CZE7ANa_mBI_-57" edge="1">
                    <mxGeometry relative="1" as="geometry"/>
                </mxCell>
                <mxCell id="oxPGqsW1CZE7ANa_mBI_-128" style="edgeStyle=orthogonalEdgeStyle;rounded=1;orthogonalLoop=1;jettySize=auto;html=1;exitX=1;exitY=0.5;exitDx=0;exitDy=0;entryX=0;entryY=0.5;entryDx=0;entryDy=0;strokeWidth=5;fontSize=44;fillColor=#dae8fc;strokeColor=#6c8ebf;fontColor=#000000;" parent="1" source="oxPGqsW1CZE7ANa_mBI_-69" target="oxPGqsW1CZE7ANa_mBI_-48" edge="1">
                    <mxGeometry relative="1" as="geometry">
                        <Array as="points">
                            <mxPoint x="1835" y="770"/>
                            <mxPoint x="1835" y="770"/>
                        </Array>
                    </mxGeometry>
                </mxCell>
                <mxCell id="oxPGqsW1CZE7ANa_mBI_-69" value="&lt;p style=&quot;text-align: left ; font-size: 44px&quot;&gt;&lt;font style=&quot;font-size: 44px&quot;&gt;addTask()&lt;br&gt;&lt;/font&gt;&lt;font style=&quot;font-size: 44px&quot;&gt;- push new task onto upNext queue&lt;br&gt;&lt;/font&gt;&lt;font style=&quot;font-size: 44px&quot;&gt;- add task to ToDo objects&amp;nbsp;&lt;br&gt;&lt;/font&gt;&lt;font style=&quot;font-size: 44px&quot;&gt;- update necessary statisitics&lt;/font&gt;&lt;/p&gt;" style="rounded=1;whiteSpace=wrap;html=1;fillColor=#fff2cc;strokeColor=#d6b656;fontColor=#000000;" parent="1" vertex="1">
                    <mxGeometry x="895" y="610" width="830" height="320" as="geometry"/>
                </mxCell>
                <mxCell id="oxPGqsW1CZE7ANa_mBI_-92" style="edgeStyle=orthogonalEdgeStyle;rounded=0;orthogonalLoop=1;jettySize=auto;html=1;exitX=0.25;exitY=1;exitDx=0;exitDy=0;entryX=0.45;entryY=0;entryDx=0;entryDy=0;entryPerimeter=0;strokeWidth=10;fontColor=#000000;strokeColor=#000000;" parent="1" source="oxPGqsW1CZE7ANa_mBI_-70" target="oxPGqsW1CZE7ANa_mBI_-71" edge="1">
                    <mxGeometry relative="1" as="geometry"/>
                </mxCell>
                <mxCell id="oxPGqsW1CZE7ANa_mBI_-93" value="Yes" style="edgeLabel;html=1;align=center;verticalAlign=middle;resizable=0;points=[];fontColor=#000000;" parent="oxPGqsW1CZE7ANa_mBI_-92" vertex="1" connectable="0">
                    <mxGeometry x="0.2473" y="1" relative="1" as="geometry">
                        <mxPoint as="offset"/>
                    </mxGeometry>
                </mxCell>
                <mxCell id="oxPGqsW1CZE7ANa_mBI_-94" style="edgeStyle=orthogonalEdgeStyle;rounded=0;orthogonalLoop=1;jettySize=auto;html=1;exitX=0.75;exitY=1;exitDx=0;exitDy=0;strokeWidth=10;fontColor=#000000;strokeColor=#000000;" parent="1" source="oxPGqsW1CZE7ANa_mBI_-70" target="oxPGqsW1CZE7ANa_mBI_-72" edge="1">
                    <mxGeometry relative="1" as="geometry"/>
                </mxCell>
                <mxCell id="oxPGqsW1CZE7ANa_mBI_-95" value="No" style="edgeLabel;html=1;align=center;verticalAlign=middle;resizable=0;points=[];fontColor=#000000;" parent="oxPGqsW1CZE7ANa_mBI_-94" vertex="1" connectable="0">
                    <mxGeometry x="-0.2667" y="-1" relative="1" as="geometry">
                        <mxPoint x="1" y="1" as="offset"/>
                    </mxGeometry>
                </mxCell>
                <mxCell id="oxPGqsW1CZE7ANa_mBI_-70" value="&lt;div style=&quot;font-size: 44px&quot;&gt;&lt;font style=&quot;font-size: 44px&quot;&gt;workCountdownComplete()&lt;/font&gt;&lt;/div&gt;&lt;div style=&quot;font-size: 44px&quot;&gt;&lt;font style=&quot;font-size: 44px&quot;&gt;- ask if session was broken or not&lt;/font&gt;&lt;/div&gt;" style="rounded=1;whiteSpace=wrap;html=1;align=center;fillColor=#fff2cc;strokeColor=#d6b656;fontColor=#000000;" parent="1" vertex="1">
                    <mxGeometry x="3300" y="1935" width="750" height="270" as="geometry"/>
                </mxCell>
                <mxCell id="oxPGqsW1CZE7ANa_mBI_-110" style="edgeStyle=orthogonalEdgeStyle;rounded=1;orthogonalLoop=1;jettySize=auto;html=1;exitX=0;exitY=0.75;exitDx=0;exitDy=0;entryX=0.5;entryY=1;entryDx=0;entryDy=0;fontSize=24;strokeWidth=10;fillColor=#dae8fc;strokeColor=#6c8ebf;fontColor=#000000;" parent="1" source="oxPGqsW1CZE7ANa_mBI_-71" target="oxPGqsW1CZE7ANa_mBI_-63" edge="1">
                    <mxGeometry relative="1" as="geometry"/>
                </mxCell>
                <mxCell id="oxPGqsW1CZE7ANa_mBI_-119" style="edgeStyle=orthogonalEdgeStyle;rounded=1;orthogonalLoop=1;jettySize=auto;html=1;exitX=0;exitY=0.5;exitDx=0;exitDy=0;strokeWidth=10;fontSize=44;fillColor=#dae8fc;strokeColor=#6c8ebf;fontColor=#000000;" parent="1" source="oxPGqsW1CZE7ANa_mBI_-71" target="oxPGqsW1CZE7ANa_mBI_-58" edge="1">
                    <mxGeometry relative="1" as="geometry">
                        <Array as="points">
                            <mxPoint x="2365" y="2584"/>
                            <mxPoint x="2365" y="2153"/>
                        </Array>
                    </mxGeometry>
                </mxCell>
                <mxCell id="4" value="" style="edgeStyle=orthogonalEdgeStyle;rounded=0;orthogonalLoop=1;jettySize=auto;html=1;fontColor=#000000;" edge="1" parent="1" source="oxPGqsW1CZE7ANa_mBI_-71">
                    <mxGeometry relative="1" as="geometry">
                        <mxPoint x="2995" y="2925" as="targetPoint"/>
                    </mxGeometry>
                </mxCell>
                <mxCell id="42" style="edgeStyle=orthogonalEdgeStyle;orthogonalLoop=1;jettySize=auto;html=1;exitX=0.25;exitY=0;exitDx=0;exitDy=0;entryX=1;entryY=1;entryDx=0;entryDy=0;strokeColor=#6c8ebf;strokeWidth=10;fillColor=#dae8fc;fontSize=44;fontColor=#000000;" edge="1" parent="1" source="oxPGqsW1CZE7ANa_mBI_-71" target="oxPGqsW1CZE7ANa_mBI_-53">
                    <mxGeometry relative="1" as="geometry"/>
                </mxCell>
                <mxCell id="oxPGqsW1CZE7ANa_mBI_-71" value="&lt;font style=&quot;font-size: 44px&quot;&gt;completeSession()&lt;br&gt;&lt;/font&gt;&lt;div style=&quot;font-size: 44px&quot;&gt;&lt;span&gt;&lt;font style=&quot;font-size: 44px&quot;&gt;- pop off session from up next&amp;nbsp;&lt;/font&gt;&lt;/span&gt;&lt;/div&gt;&lt;div style=&quot;font-size: 44px&quot;&gt;&lt;span&gt;&lt;font style=&quot;font-size: 44px&quot;&gt;- start new timer for break&amp;nbsp;&lt;/font&gt;&lt;/span&gt;&lt;/div&gt;&lt;div style=&quot;font-size: 44px&quot;&gt;&lt;font style=&quot;font-size: 44px&quot;&gt;-update statistics (increment session count)&lt;/font&gt;&lt;/div&gt;" style="rounded=1;whiteSpace=wrap;html=1;align=center;fillColor=#fff2cc;strokeColor=#d6b656;fontColor=#000000;" parent="1" vertex="1">
                    <mxGeometry x="2880" y="2429" width="720" height="310" as="geometry"/>
                </mxCell>
                <mxCell id="oxPGqsW1CZE7ANa_mBI_-114" style="edgeStyle=orthogonalEdgeStyle;rounded=1;orthogonalLoop=1;jettySize=auto;html=1;exitX=0.75;exitY=0;exitDx=0;exitDy=0;entryX=1;entryY=0.5;entryDx=0;entryDy=0;strokeWidth=10;fontSize=24;fillColor=#dae8fc;strokeColor=#6c8ebf;fontColor=#000000;" parent="1" source="oxPGqsW1CZE7ANa_mBI_-72" target="oxPGqsW1CZE7ANa_mBI_-55" edge="1">
                    <mxGeometry relative="1" as="geometry"/>
                </mxCell>
                <mxCell id="oxPGqsW1CZE7ANa_mBI_-123" style="edgeStyle=orthogonalEdgeStyle;rounded=1;orthogonalLoop=1;jettySize=auto;html=1;exitX=0;exitY=0.75;exitDx=0;exitDy=0;entryX=0.5;entryY=1;entryDx=0;entryDy=0;strokeWidth=10;fontSize=44;fillColor=#dae8fc;strokeColor=#6c8ebf;fontColor=#000000;" parent="1" source="oxPGqsW1CZE7ANa_mBI_-72" target="oxPGqsW1CZE7ANa_mBI_-63" edge="1">
                    <mxGeometry relative="1" as="geometry">
                        <Array as="points">
                            <mxPoint x="3975" y="2907"/>
                            <mxPoint x="628" y="2907"/>
                        </Array>
                    </mxGeometry>
                </mxCell>
                <mxCell id="33" style="edgeStyle=orthogonalEdgeStyle;orthogonalLoop=1;jettySize=auto;html=1;exitX=0;exitY=0.75;exitDx=0;exitDy=0;entryX=1;entryY=0.75;entryDx=0;entryDy=0;strokeColor=#6c8ebf;strokeWidth=10;fillColor=#dae8fc;fontSize=44;fontColor=#000000;" edge="1" parent="1" source="oxPGqsW1CZE7ANa_mBI_-72" target="oxPGqsW1CZE7ANa_mBI_-57">
                    <mxGeometry relative="1" as="geometry">
                        <Array as="points">
                            <mxPoint x="3975" y="2907"/>
                            <mxPoint x="2363" y="2907"/>
                            <mxPoint x="2363" y="2154"/>
                        </Array>
                    </mxGeometry>
                </mxCell>
                <mxCell id="oxPGqsW1CZE7ANa_mBI_-72" value="&lt;div style=&quot;font-size: 44px&quot;&gt;&lt;font style=&quot;font-size: 44px&quot;&gt;brokenSession()&lt;/font&gt;&lt;/div&gt;&lt;font style=&quot;font-size: 44px&quot;&gt;- ask why session was broken&lt;br&gt;- increment statistics&lt;br&gt;- ask to start break timer or redo-session&lt;/font&gt;" style="rounded=1;whiteSpace=wrap;html=1;align=center;fillColor=#fff2cc;strokeColor=#d6b656;fontColor=#000000;" parent="1" vertex="1">
                    <mxGeometry x="3975" y="2440" width="760" height="390" as="geometry"/>
                </mxCell>
                <mxCell id="oxPGqsW1CZE7ANa_mBI_-96" style="edgeStyle=orthogonalEdgeStyle;rounded=0;orthogonalLoop=1;jettySize=auto;html=1;exitX=0.5;exitY=1;exitDx=0;exitDy=0;strokeWidth=10;fontColor=#000000;" parent="1" source="oxPGqsW1CZE7ANa_mBI_-73" target="oxPGqsW1CZE7ANa_mBI_-83" edge="1">
                    <mxGeometry relative="1" as="geometry"/>
                </mxCell>
                <mxCell id="oxPGqsW1CZE7ANa_mBI_-73" value="&lt;font style=&quot;font-size: 44px&quot;&gt;End Day Button&lt;/font&gt;" style="html=1;fillColor=#f5f5f5;strokeColor=#666666;fontColor=#000000;" parent="1" vertex="1">
                    <mxGeometry x="3442" y="464.85" width="460" height="71.71" as="geometry"/>
                </mxCell>
                <mxCell id="oxPGqsW1CZE7ANa_mBI_-89" style="edgeStyle=orthogonalEdgeStyle;rounded=0;orthogonalLoop=1;jettySize=auto;html=1;exitX=0.5;exitY=1;exitDx=0;exitDy=0;strokeWidth=10;fontColor=#000000;" parent="1" source="oxPGqsW1CZE7ANa_mBI_-74" target="oxPGqsW1CZE7ANa_mBI_-84" edge="1">
                    <mxGeometry relative="1" as="geometry"/>
                </mxCell>
                <mxCell id="oxPGqsW1CZE7ANa_mBI_-74" value="&lt;font style=&quot;font-size: 44px&quot;&gt;Button Clicked&lt;/font&gt;" style="ellipse;whiteSpace=wrap;html=1;fontSize=40;fillColor=#e1d5e7;strokeColor=#9673a6;fontColor=#000000;" parent="1" vertex="1">
                    <mxGeometry x="2497" y="670" width="360" height="130.85" as="geometry"/>
                </mxCell>
                <mxCell id="20" style="edgeStyle=orthogonalEdgeStyle;orthogonalLoop=1;jettySize=auto;html=1;exitX=1;exitY=0.25;exitDx=0;exitDy=0;entryX=1;entryY=0.5;entryDx=0;entryDy=0;entryPerimeter=0;labelBackgroundColor=#FFFFFF;strokeColor=#6c8ebf;strokeWidth=10;fillColor=#dae8fc;fontSize=48;fontColor=#000000;" edge="1" parent="1" source="oxPGqsW1CZE7ANa_mBI_-76" target="6">
                    <mxGeometry relative="1" as="geometry">
                        <Array as="points">
                            <mxPoint x="3630" y="882"/>
                            <mxPoint x="4824" y="882"/>
                            <mxPoint x="4824" y="3128"/>
                        </Array>
                    </mxGeometry>
                </mxCell>
                <mxCell id="21" value="&lt;span&gt;Display Stats&lt;/span&gt;" style="edgeLabel;html=1;align=center;verticalAlign=middle;resizable=0;points=[];fontSize=48;fontColor=#000000;labelBackgroundColor=#ffffff;" vertex="1" connectable="0" parent="20">
                    <mxGeometry x="-0.1535" y="3" relative="1" as="geometry">
                        <mxPoint y="-111" as="offset"/>
                    </mxGeometry>
                </mxCell>
                <mxCell id="oxPGqsW1CZE7ANa_mBI_-76" value="&lt;div style=&quot;text-align: center ; font-size: 44px&quot;&gt;&lt;font style=&quot;font-size: 44px&quot;&gt;endSession()&lt;/font&gt;&lt;/div&gt;&lt;div style=&quot;font-size: 44px&quot;&gt;&lt;span&gt;&lt;font style=&quot;font-size: 44px&quot;&gt;- stop timer&lt;/font&gt;&lt;/span&gt;&lt;/div&gt;&lt;font style=&quot;font-size: 44px&quot;&gt;- display statistics&lt;/font&gt;" style="rounded=1;whiteSpace=wrap;html=1;align=left;fillColor=#fff2cc;strokeColor=#d6b656;fontColor=#000000;" parent="1" vertex="1">
                    <mxGeometry x="3413" y="967" width="530" height="230" as="geometry"/>
                </mxCell>
                <mxCell id="oxPGqsW1CZE7ANa_mBI_-77" style="edgeStyle=orthogonalEdgeStyle;rounded=0;orthogonalLoop=1;jettySize=auto;html=1;strokeWidth=10;fontColor=#000000;" parent="1" target="oxPGqsW1CZE7ANa_mBI_-62" edge="1">
                    <mxGeometry relative="1" as="geometry">
                        <mxPoint x="2227" y="890" as="sourcePoint"/>
                        <Array as="points">
                            <mxPoint x="2227" y="890"/>
                        </Array>
                    </mxGeometry>
                </mxCell>
                <mxCell id="oxPGqsW1CZE7ANa_mBI_-88" style="edgeStyle=orthogonalEdgeStyle;rounded=0;orthogonalLoop=1;jettySize=auto;html=1;exitX=0.5;exitY=1;exitDx=0;exitDy=0;strokeWidth=10;fontColor=#000000;" parent="1" source="oxPGqsW1CZE7ANa_mBI_-82" target="oxPGqsW1CZE7ANa_mBI_-74" edge="1">
                    <mxGeometry relative="1" as="geometry"/>
                </mxCell>
                <mxCell id="oxPGqsW1CZE7ANa_mBI_-82" value="&lt;font style=&quot;font-size: 44px&quot;&gt;Start Button&lt;/font&gt;" style="html=1;fillColor=#f5f5f5;strokeColor=#666666;fontColor=#000000;" parent="1" vertex="1">
                    <mxGeometry x="2482" y="437" width="390" height="91.71" as="geometry"/>
                </mxCell>
                <mxCell id="oxPGqsW1CZE7ANa_mBI_-97" style="edgeStyle=orthogonalEdgeStyle;rounded=0;orthogonalLoop=1;jettySize=auto;html=1;exitX=0.5;exitY=1;exitDx=0;exitDy=0;fontColor=#000000;" parent="1" source="oxPGqsW1CZE7ANa_mBI_-83" target="oxPGqsW1CZE7ANa_mBI_-76" edge="1">
                    <mxGeometry relative="1" as="geometry"/>
                </mxCell>
                <mxCell id="oxPGqsW1CZE7ANa_mBI_-83" value="&lt;font style=&quot;font-size: 44px&quot;&gt;Button Clicked&lt;/font&gt;" style="ellipse;whiteSpace=wrap;html=1;fillColor=#e1d5e7;strokeColor=#9673a6;fontColor=#000000;" parent="1" vertex="1">
                    <mxGeometry x="3455" y="670" width="440" height="101.71" as="geometry"/>
                </mxCell>
                <mxCell id="34" style="edgeStyle=orthogonalEdgeStyle;orthogonalLoop=1;jettySize=auto;html=1;exitX=0.5;exitY=1;exitDx=0;exitDy=0;entryX=0.5;entryY=0;entryDx=0;entryDy=0;strokeColor=#6c8ebf;strokeWidth=10;fillColor=#dae8fc;fontSize=44;fontColor=#000000;" edge="1" parent="1" source="oxPGqsW1CZE7ANa_mBI_-84" target="oxPGqsW1CZE7ANa_mBI_-53">
                    <mxGeometry relative="1" as="geometry"/>
                </mxCell>
                <mxCell id="oxPGqsW1CZE7ANa_mBI_-84" value="&lt;div style=&quot;font-size: 44px&quot;&gt;&lt;font style=&quot;font-size: 44px&quot;&gt;startTimer()&lt;/font&gt;&lt;/div&gt;&lt;div style=&quot;text-align: left ; font-size: 44px&quot;&gt;&lt;font style=&quot;font-size: 44px&quot;&gt;- starts the timer for the inidcated duration&lt;/font&gt;&lt;/div&gt;" style="rounded=1;whiteSpace=wrap;html=1;align=center;fillColor=#fff2cc;strokeColor=#d6b656;fontColor=#000000;" parent="1" vertex="1">
                    <mxGeometry x="2410" y="1003" width="540" height="190" as="geometry"/>
                </mxCell>
                <mxCell id="oxPGqsW1CZE7ANa_mBI_-133" value="&lt;font style=&quot;font-size: 75px&quot;&gt;&lt;u&gt;System Diagram for V 1.1&lt;/u&gt;&lt;/font&gt;" style="text;html=1;align=center;verticalAlign=middle;resizable=0;points=[];autosize=1;fontSize=44;fontColor=#000000;" parent="1" vertex="1">
                    <mxGeometry x="201" y="460.71" width="868" height="66" as="geometry"/>
                </mxCell>
                <mxCell id="7" style="edgeStyle=orthogonalEdgeStyle;rounded=0;orthogonalLoop=1;jettySize=auto;html=1;fontColor=none;" edge="1" parent="1" source="6">
                    <mxGeometry relative="1" as="geometry">
                        <mxPoint x="2574.0205078125" y="3545.3436889648438" as="targetPoint"/>
                    </mxGeometry>
                </mxCell>
                <mxCell id="6" value="&lt;h1 style=&quot;font-size: 100px&quot;&gt;DOM&lt;/h1&gt;" style="shape=cylinder3;whiteSpace=wrap;html=1;boundedLbl=1;backgroundOutline=1;size=15;labelBackgroundColor=none;fontColor=none;fillColor=#8C85E6;" vertex="1" parent="1">
                    <mxGeometry x="1913" y="3385" width="327" height="243" as="geometry"/>
                </mxCell>
                <mxCell id="16" style="edgeStyle=orthogonalEdgeStyle;orthogonalLoop=1;jettySize=auto;html=1;exitX=0.5;exitY=1;exitDx=0;exitDy=0;labelBackgroundColor=#FFFFFF;strokeColor=#6c8ebf;strokeWidth=10;fillColor=#dae8fc;fontSize=48;fontColor=#000000;entryX=1;entryY=0.5;entryDx=0;entryDy=0;entryPerimeter=0;" edge="1" parent="1" source="oxPGqsW1CZE7ANa_mBI_-71" target="6">
                    <mxGeometry relative="1" as="geometry">
                        <mxPoint x="3736.4" y="2317" as="sourcePoint"/>
                        <mxPoint x="3572.0000000000005" y="3467" as="targetPoint"/>
                    </mxGeometry>
                </mxCell>
                <mxCell id="17" value="&lt;span style=&quot;&quot;&gt;Update sessions&lt;/span&gt;" style="edgeLabel;html=1;align=center;verticalAlign=middle;resizable=0;points=[];fontSize=48;fontColor=#000000;labelBackgroundColor=#ffffff;" vertex="1" connectable="0" parent="16">
                    <mxGeometry x="0.2773" y="-5" relative="1" as="geometry">
                        <mxPoint y="-1" as="offset"/>
                    </mxGeometry>
                </mxCell>
                <mxCell id="18" style="edgeStyle=orthogonalEdgeStyle;orthogonalLoop=1;jettySize=auto;html=1;labelBackgroundColor=#FFFFFF;strokeColor=#6c8ebf;strokeWidth=10;fillColor=#dae8fc;fontSize=48;fontColor=#000000;exitX=0.81;exitY=1.001;exitDx=0;exitDy=0;exitPerimeter=0;" edge="1" parent="1" source="oxPGqsW1CZE7ANa_mBI_-68">
                    <mxGeometry relative="1" as="geometry">
                        <mxPoint x="2012.4" y="2190" as="sourcePoint"/>
                        <mxPoint x="2072.0000000000005" y="3381" as="targetPoint"/>
                    </mxGeometry>
                </mxCell>
                <mxCell id="19" value="&lt;span style=&quot;&quot;&gt;Update tasks&lt;/span&gt;" style="edgeLabel;html=1;align=center;verticalAlign=middle;resizable=0;points=[];fontSize=48;fontColor=#000000;labelBackgroundColor=#ffffff;" vertex="1" connectable="0" parent="18">
                    <mxGeometry x="0.2773" y="-5" relative="1" as="geometry">
                        <mxPoint x="-27.62" y="7.33" as="offset"/>
                    </mxGeometry>
                </mxCell>
                <mxCell id="oxPGqsW1CZE7ANa_mBI_-64" value="&lt;font style=&quot;font-size: 44px&quot;&gt;Work Countdown Complete&lt;/font&gt;" style="ellipse;whiteSpace=wrap;html=1;fillColor=#e1d5e7;strokeColor=#9673a6;fontColor=#000000;" parent="1" vertex="1">
                    <mxGeometry x="2440" y="1990" width="480" height="160" as="geometry"/>
                </mxCell>
                <mxCell id="26" value="&lt;span style=&quot;&quot;&gt;Update sessions&lt;/span&gt;" style="edgeLabel;html=1;align=center;verticalAlign=middle;resizable=0;points=[];fontSize=48;fontColor=#000000;labelBackgroundColor=#ffffff;" vertex="1" connectable="0" parent="1">
                    <mxGeometry x="3908.0011722176832" y="3119.0049722044423" as="geometry"/>
                </mxCell>
                <mxCell id="38" style="edgeStyle=orthogonalEdgeStyle;orthogonalLoop=1;jettySize=auto;html=1;exitX=0.5;exitY=0;exitDx=0;exitDy=0;entryX=0.5;entryY=1;entryDx=0;entryDy=0;strokeColor=#6c8ebf;strokeWidth=10;fillColor=#dae8fc;fontSize=44;fontColor=#000000;" edge="1" parent="1" source="oxPGqsW1CZE7ANa_mBI_-138" target="oxPGqsW1CZE7ANa_mBI_-84">
                    <mxGeometry relative="1" as="geometry"/>
                </mxCell>
                <mxCell id="oxPGqsW1CZE7ANa_mBI_-138" value="&lt;font style=&quot;font-size: 30px&quot;&gt;Break Countdown Complete&lt;/font&gt;" style="ellipse;whiteSpace=wrap;html=1;fillColor=#e1d5e7;strokeColor=#9673a6;fontColor=#000000;" parent="1" vertex="1">
                    <mxGeometry x="2690" y="1304" width="328" height="90" as="geometry"/>
                </mxCell>
                <mxCell id="35" style="edgeStyle=orthogonalEdgeStyle;rounded=1;orthogonalLoop=1;jettySize=auto;html=1;strokeWidth=10;fontSize=44;fillColor=#dae8fc;strokeColor=#6c8ebf;fontColor=#000000;exitX=0.5;exitY=1;exitDx=0;exitDy=0;entryX=1;entryY=0.5;entryDx=0;entryDy=0;" edge="1" parent="1" source="oxPGqsW1CZE7ANa_mBI_-76" target="oxPGqsW1CZE7ANa_mBI_-53">
                    <mxGeometry relative="1" as="geometry">
                        <mxPoint x="3678" y="1197" as="sourcePoint"/>
                        <mxPoint x="2680.333333333334" y="1524" as="targetPoint"/>
                        <Array as="points">
                            <mxPoint x="3678" y="1684"/>
                        </Array>
                    </mxGeometry>
                </mxCell>
            </root>
        </mxGraphModel>
    </diagram>
</mxfile>